<svg width="32" height="32" viewBox="0 0 32 32" fill="none" xmlns="http://www.w3.org/2000/svg">
<g filter="url(#filter0_i_425_295)">
<circle cx="16" cy="16" r="16" fill="#D9D9D9"/>
</g>
<path d="M9.23181 5.5099C9.38497 5.3271 9.46035 5.09155 9.44177 4.8538C9.4232 4.61605 9.31215 4.39506 9.13246 4.23827C8.95277 4.08148 8.71877 4.0014 8.4807 4.0152C8.24262 4.02901 8.01945 4.13561 7.85909 4.31211L6.28958 6.11C5.3996 7.1299 4.89649 8.43021 4.86827 9.78352L4.79902 13.0865C4.79655 13.2062 4.81767 13.3251 4.86117 13.4366C4.90467 13.5481 4.96971 13.6499 5.05256 13.7363C5.13542 13.8226 5.23447 13.8918 5.34406 13.9399C5.45365 13.988 5.57164 14.014 5.69129 14.0165C5.81094 14.0189 5.9299 13.9978 6.04138 13.9543C6.15287 13.9108 6.2547 13.8458 6.34105 13.7629C6.4274 13.6801 6.49659 13.581 6.54466 13.4714C6.59273 13.3618 6.61874 13.2438 6.62122 13.1242L6.68924 9.8224C6.70873 8.8964 7.05317 8.00672 7.66229 7.309L9.23181 5.5099Z" fill="#090836"/>
<path fill-rule="evenodd" clip-rule="evenodd" d="M8.99757 11.9324C9.07915 10.6327 9.65297 9.41298 10.6022 8.52151C11.5515 7.63005 12.8048 7.13385 14.107 7.13394H14.7836V6.22285C14.7836 5.90066 14.9116 5.59168 15.1394 5.36386C15.3673 5.13604 15.6762 5.00806 15.9984 5.00806C16.3206 5.00806 16.6296 5.13604 16.8574 5.36386C17.0852 5.59168 17.2132 5.90066 17.2132 6.22285V7.13394H17.8899C19.1921 7.13385 20.4454 7.63005 21.3946 8.52151C22.3439 9.41298 22.9177 10.6327 22.9993 11.9324L23.2678 16.2254C23.3715 17.862 23.921 19.439 24.8567 20.7857C25.0503 21.064 25.1686 21.3876 25.2001 21.7251C25.2316 22.0627 25.1752 22.4026 25.0364 22.7119C24.8976 23.0211 24.6811 23.2892 24.408 23.49C24.1349 23.6909 23.8145 23.8176 23.4779 23.8579L19.3391 24.3536V25.6595C19.3391 26.5455 18.9872 27.3952 18.3607 28.0217C17.7342 28.6482 16.8844 29.0001 15.9984 29.0001C15.1124 29.0001 14.2627 28.6482 13.6362 28.0217C13.0097 27.3952 12.6577 26.5455 12.6577 25.6595V24.3536L8.51894 23.8567C8.18255 23.8163 7.86235 23.6895 7.58943 23.4888C7.31651 23.288 7.10016 23.0201 6.96139 22.711C6.82262 22.4019 6.76615 22.0622 6.79748 21.7249C6.8288 21.3875 6.94684 21.064 7.14014 20.7857C8.07583 19.439 8.62531 17.862 8.7291 16.2254L8.99757 11.9324ZM14.107 8.95612C13.2683 8.95602 12.461 9.27558 11.8496 9.84973C11.2382 10.4239 10.8686 11.2095 10.8161 12.0465L10.5489 16.3396C10.424 18.3085 9.76272 20.2056 8.63677 21.8256C8.62276 21.8457 8.6142 21.8691 8.61191 21.8935C8.60962 21.9179 8.61369 21.9425 8.62372 21.9649C8.63374 21.9873 8.64939 22.0067 8.66913 22.0212C8.68887 22.0358 8.71204 22.045 8.73638 22.0479L13.2761 22.5933C15.0849 22.8096 16.912 22.8096 18.7208 22.5933L23.2605 22.0479C23.2848 22.045 23.308 22.0358 23.3277 22.0212C23.3475 22.0067 23.3631 21.9873 23.3731 21.9649C23.3832 21.9425 23.3872 21.9179 23.3849 21.8935C23.3827 21.8691 23.3741 21.8457 23.3601 21.8256C22.2346 20.2055 21.5738 18.3084 21.4492 16.3396L21.1807 12.0465C21.1282 11.2095 20.7586 10.4239 20.1472 9.84973C19.5358 9.27558 18.7286 8.95602 17.8899 8.95612H14.107ZM15.9984 27.178C15.1602 27.178 14.4799 26.4977 14.4799 25.6595V24.7484H17.5169V25.6595C17.5169 26.4977 16.8366 27.178 15.9984 27.178Z" fill="#090836"/>
<path d="M22.8539 4.22448C22.6719 4.38334 22.5605 4.60798 22.5441 4.84899C22.5277 5.09001 22.6077 5.32767 22.7665 5.50973L24.336 7.30761C24.9449 8.00583 25.289 8.89596 25.3078 9.82223L25.3771 13.1228C25.3821 13.3644 25.4828 13.5942 25.6572 13.7615C25.8316 13.9289 26.0654 14.0201 26.307 14.0151C26.5486 14.0101 26.7784 13.9093 26.9457 13.7349C27.1131 13.5605 27.2043 13.3268 27.1993 13.0851L27.13 9.78335C27.1018 8.43004 26.5987 7.12973 25.7087 6.10983L24.1392 4.31194C23.9803 4.12995 23.7557 4.01851 23.5147 4.0021C23.2737 3.9857 23.036 4.06569 22.8539 4.22448Z" fill="#090836"/>
<defs>
<filter id="filter0_i_425_295" x="0" y="0" width="32" height="36" filterUnits="userSpaceOnUse" color-interpolation-filters="sRGB">
<feFlood flood-opacity="0" result="BackgroundImageFix"/>
<feBlend mode="normal" in="SourceGraphic" in2="BackgroundImageFix" result="shape"/>
<feColorMatrix in="SourceAlpha" type="matrix" values="0 0 0 0 0 0 0 0 0 0 0 0 0 0 0 0 0 0 127 0" result="hardAlpha"/>
<feOffset dy="4"/>
<feGaussianBlur stdDeviation="2"/>
<feComposite in2="hardAlpha" operator="arithmetic" k2="-1" k3="1"/>
<feColorMatrix type="matrix" values="0 0 0 0 0 0 0 0 0 0 0 0 0 0 0 0 0 0 0.25 0"/>
<feBlend mode="normal" in2="shape" result="effect1_innerShadow_425_295"/>
</filter>
</defs>
</svg>
