<svg width="32" height="32" viewBox="0 0 32 32" fill="none" xmlns="http://www.w3.org/2000/svg">
<g filter="url(#filter0_i_425_301)">
<circle cx="16" cy="16" r="16" fill="#D9D9D9"/>
</g>
<path d="M15.9992 28.4999C8.92157 28.4999 3.19922 22.7775 3.19922 15.6999C3.19922 8.62226 8.92157 2.8999 15.9992 2.8999C23.0769 2.8999 28.7992 8.62226 28.7992 15.6999C28.7992 22.7775 23.0016 28.4999 15.9992 28.4999ZM15.9992 4.40578C9.74981 4.40578 4.7051 9.45049 4.7051 15.6999C4.7051 21.9493 9.74981 26.994 15.9992 26.994C22.2486 26.994 27.2933 21.9493 27.2933 15.6999C27.2933 9.45049 22.1733 4.40578 15.9992 4.40578Z" fill="#090836"/>
<path d="M8.62092 25.0497L7.26562 24.4473C7.6421 23.5438 8.8468 23.0167 10.1268 22.4144C11.4068 21.812 12.988 21.1344 12.988 20.3061V19.1767C12.5362 18.8002 11.7833 17.972 11.6327 16.7673C11.2562 16.3908 10.6539 15.7132 10.6539 14.8097C10.6539 14.2826 10.8797 13.8308 11.0303 13.5297C10.8797 12.9273 10.7292 11.7979 10.7292 10.8944C10.7292 7.95789 12.7621 6.00024 15.9997 6.00024C16.9033 6.00024 18.0327 6.22613 18.635 6.90377C20.0656 7.20495 21.2703 8.86142 21.2703 10.8944C21.2703 12.1744 21.0444 13.2285 20.8939 13.7555C21.0444 13.9814 21.195 14.3579 21.195 14.8097C21.195 15.7885 20.668 16.4661 20.2162 16.7673C20.0656 17.972 19.388 18.7249 18.9362 19.1014V20.3061C18.9362 20.9838 20.2915 21.5108 21.4962 21.9626C22.9268 22.4897 24.4327 23.092 24.9597 24.2967L23.5292 24.8238C23.3033 24.2214 22.0986 23.7697 20.9692 23.3932C19.3127 22.7908 17.4303 22.1132 17.4303 20.3814V18.4238L17.8068 18.1979C17.8068 18.1979 18.7103 17.5955 18.7103 16.3908V15.8638L19.1621 15.6379C19.2374 15.6379 19.6139 15.412 19.6139 14.8097C19.6139 14.6591 19.4633 14.4332 19.388 14.3579L19.0868 14.0567L19.2374 13.6802C19.2374 13.6802 19.6139 12.4755 19.6139 10.9697C19.6139 9.53907 18.7856 8.48495 18.108 8.48495H17.6562L17.4303 8.10848C17.4303 7.8073 16.9033 7.50613 15.9997 7.50613C13.6656 7.50613 12.235 8.78613 12.235 10.8944C12.235 11.8732 12.6115 13.5297 12.6115 13.5297L12.6868 13.9061L12.3856 14.2826C12.3103 14.2826 12.1597 14.5085 12.1597 14.8097C12.1597 15.1861 12.6115 15.6379 12.8374 15.7885L13.1386 16.0144V16.3908C13.1386 17.5202 14.1174 18.1226 14.1174 18.1979L14.4939 18.4238V20.3814C14.4939 22.1885 12.5362 23.092 10.7292 23.8449C9.90092 24.1461 8.77151 24.6732 8.62092 25.0497Z" fill="#090836"/>
<defs>
<filter id="filter0_i_425_301" x="0" y="0" width="32" height="36" filterUnits="userSpaceOnUse" color-interpolation-filters="sRGB">
<feFlood flood-opacity="0" result="BackgroundImageFix"/>
<feBlend mode="normal" in="SourceGraphic" in2="BackgroundImageFix" result="shape"/>
<feColorMatrix in="SourceAlpha" type="matrix" values="0 0 0 0 0 0 0 0 0 0 0 0 0 0 0 0 0 0 127 0" result="hardAlpha"/>
<feOffset dy="4"/>
<feGaussianBlur stdDeviation="2"/>
<feComposite in2="hardAlpha" operator="arithmetic" k2="-1" k3="1"/>
<feColorMatrix type="matrix" values="0 0 0 0 0 0 0 0 0 0 0 0 0 0 0 0 0 0 0.25 0"/>
<feBlend mode="normal" in2="shape" result="effect1_innerShadow_425_301"/>
</filter>
</defs>
</svg>
