<svg width="22" height="19" viewBox="0 0 22 19" fill="none" xmlns="http://www.w3.org/2000/svg">
<path d="M0 15.2023C0 15.4257 0.0713417 15.6102 0.222943 15.7559C0.374544 15.9113 0.561816 15.9793 0.775841 15.9793H17.3717C17.5857 15.9793 17.7641 15.9016 17.9068 15.7559C18.0584 15.6005 18.1297 15.416 18.1297 15.2023C18.1297 14.9692 18.0584 14.7652 17.9157 14.6098C17.8461 14.5296 17.7615 14.4664 17.6677 14.4245C17.5739 14.3827 17.473 14.3631 17.3717 14.367H0.775841C0.561816 14.367 0.383462 14.4447 0.231861 14.6098C0.0802594 14.7749 0 14.9789 0 15.2023ZM2.32752 12.1816C2.32752 12.4147 2.40778 12.5993 2.55938 12.7547C2.68423 12.9295 2.85367 13.0169 3.08553 13.0169H19.6814C19.8865 13.0169 20.0559 12.9392 20.1986 12.7741C20.3413 12.609 20.4037 12.4147 20.4037 12.1816C20.4059 12.0776 20.3889 11.9741 20.3537 11.8773C20.3184 11.7805 20.2657 11.6924 20.1986 11.6183C20.1305 11.5452 20.0497 11.4878 19.9608 11.4494C19.872 11.411 19.777 11.3925 19.6814 11.3949H3.08553C2.8715 11.3949 2.69315 11.4726 2.55047 11.6183C2.39886 11.7737 2.32752 11.9582 2.32752 12.1816ZM2.46129 9.83114V9.78257C2.42562 9.92826 2.46129 9.99625 2.5683 9.99625H3.85245C3.90596 9.99625 3.95947 9.94769 4.02189 9.85056C4.23591 9.3455 4.54803 8.93756 4.96717 8.61704C5.3863 8.29652 5.85002 8.11197 6.34941 8.07312L6.82205 7.99542C6.92906 7.99542 6.99149 7.93714 6.99149 7.82059L7.04499 7.33495C7.14309 6.28597 7.54439 5.42153 8.2578 4.7125C8.97122 4.01318 9.8184 3.66352 10.7904 3.66352C11.7446 3.66352 12.5918 4.01318 13.3052 4.70279C14.0186 5.39239 14.4378 6.25683 14.5359 7.2961L14.5983 7.84973C14.5983 7.96628 14.6607 8.02456 14.7856 8.02456H16.1946C16.7653 8.02456 17.2914 8.18968 17.7552 8.52962C18.2189 8.85986 18.5756 9.30665 18.7985 9.85056C18.861 9.94769 18.9234 9.99625 18.9947 9.99625H20.261C20.3681 9.99625 20.4126 9.92826 20.3948 9.78257C20.1986 9.23866 20.0649 8.89871 19.9846 8.75302C20.6267 8.12169 21.0815 7.28639 21.3223 6.25683L21.4739 5.61579C21.486 5.59162 21.4916 5.56419 21.4901 5.53668C21.4885 5.50917 21.4798 5.48272 21.4649 5.46038C21.4382 5.42153 21.4025 5.39239 21.3579 5.39239L20.805 5.17871C20.0113 4.92618 19.4049 4.42112 18.9858 3.64409C18.5667 2.86707 18.4597 2.04149 18.6559 1.15762L18.7718 0.594281C18.8164 0.506866 18.7807 0.429164 18.6559 0.370887L17.9068 0.147493C16.9501 -0.114496 15.9409 -0.0257395 15.0353 0.400025C14.1176 0.811969 13.3456 1.53371 12.8326 2.45914C12.1281 2.15804 11.4414 2.01235 10.7904 2.01235C9.55087 2.01235 8.45399 2.43971 7.48196 3.28472C6.50993 4.12973 5.89461 5.21756 5.60924 6.5385C4.86015 6.73276 4.20024 7.12127 3.62951 7.71375C3.05878 8.30623 2.68423 9.01526 2.46129 9.83114ZM3.87029 18.1647C3.87029 18.3978 3.95055 18.5823 4.10215 18.7378C4.25375 18.9126 4.4321 19 4.62829 19H21.2598C21.4649 19 21.6433 18.9223 21.786 18.7572C21.9287 18.5921 22 18.3978 22 18.1647C22 17.9413 21.9287 17.7568 21.786 17.6014C21.6433 17.446 21.4649 17.378 21.2598 17.378H4.63721C4.42319 17.378 4.24483 17.4557 4.10215 17.6014C3.95055 17.7568 3.87029 17.9413 3.87029 18.1647ZM14.1346 3.33329C14.4467 2.77966 14.8658 2.34258 15.392 2.04149C15.9181 1.74039 16.471 1.61412 17.0596 1.6724C16.9972 2.68253 17.2112 3.63438 17.6838 4.51824C18.1654 5.40211 18.8253 6.05286 19.6636 6.48023C19.5298 6.82017 19.3069 7.16983 18.9947 7.51949C18.2119 6.80066 17.2184 6.41126 16.1946 6.42195H15.9092C15.6238 5.14958 15.0353 4.12002 14.1346 3.33329Z" fill="white"/>
</svg>
