<svg width="24" height="25" viewBox="0 0 24 25" fill="none" xmlns="http://www.w3.org/2000/svg">
<path d="M4.61799 2.16887C4.61762 2.16842 4.61726 2.16797 4.61689 2.16752C4.42969 1.9386 4.19328 1.75483 3.92523 1.6299C3.65665 1.50473 3.36326 1.44186 3.06698 1.44599L3.05957 1.4461V1.44604C2.36342 1.44544 1.7107 1.62219 1.24622 1.96111C0.800438 2.28638 0.5 2.77826 0.5 3.50735V22.3697C0.502737 22.8167 0.650612 23.2507 0.921383 23.6064L0.523539 23.9093L0.921383 23.6064C1.19241 23.9625 1.57188 24.2207 2.00254 24.3422C2.43319 24.4637 2.89168 24.4419 3.30884 24.28C3.726 24.1181 4.07921 23.825 4.31518 23.4448L4.32002 23.437L4.32515 23.4294L9.32948 15.991C9.32958 15.9908 9.32969 15.9906 9.32979 15.9905C9.33823 15.9777 9.33992 15.9709 9.34013 15.9699C9.33957 15.9676 9.33603 15.9572 9.32328 15.9459C9.3134 15.9371 9.30573 15.9346 9.30309 15.934C9.30147 15.9346 9.2957 15.937 9.28629 15.9441L4.95591 20.2997L4.94261 20.3131L4.92835 20.3254C4.72283 20.5031 4.43545 20.5511 4.18626 20.4364C3.93007 20.3184 3.78533 20.0636 3.78533 19.7912V6.41265C3.78533 6.071 4.01611 5.83892 4.25778 5.75708C4.48464 5.68025 4.80713 5.70983 5.01722 5.97079L5.01696 5.97047L4.628 6.28465L5.01804 5.97181L4.61799 2.16887ZM4.61799 2.16887L18.98 20.0269C18.9805 20.0276 18.9811 20.0282 18.9816 20.0289C19.1966 20.2985 19.526 20.3171 19.7462 20.2398C19.9771 20.1588 20.2133 19.9323 20.2133 19.5885V6.17266C20.2133 5.89844 20.0658 5.64533 19.811 5.5291C19.5631 5.41598 19.2756 5.46292 19.0697 5.64279L19.0589 5.65219L19.0487 5.66219L14.6888 9.93436C14.6777 9.94301 14.6712 9.94541 14.6701 9.94582C14.6698 9.94592 14.6695 9.946 14.6694 9.94605C14.6675 9.94577 14.6572 9.94376 14.644 9.93219C14.6312 9.92092 14.6271 9.91061 14.6261 9.90754C14.6263 9.90679 14.6267 9.90559 14.6274 9.90392C14.6286 9.90108 14.631 9.89624 14.6354 9.88951C14.6356 9.8893 14.6357 9.8891 14.6359 9.88889L18.7333 3.80813V3.95159L19.6595 2.44219C19.8954 2.05773 20.2503 1.76069 20.6703 1.59612C21.0902 1.43155 21.5524 1.40844 21.9868 1.53029C22.4211 1.65213 22.8038 1.9123 23.0769 2.27131L23.4748 1.9686L23.0769 2.27131C23.3498 2.63017 23.4984 3.06824 23.5 3.51911C23.5 3.5193 23.5 3.51948 23.5 3.51967L23.5 22.3818C23.5 23.1122 23.1967 23.6038 22.7457 23.9294C22.2754 24.2689 21.6154 24.4452 20.9142 24.4458L4.61799 2.16887ZM19.3564 23.7229L18.968 24.0378L19.357 23.7236L19.3564 23.7229ZM4.78533 6.47944V6.41265C4.78533 6.4335 4.78333 6.45342 4.77963 6.47237L4.78533 6.47944ZM4.28533 6.64615C4.26928 6.63269 4.25375 6.617 4.23904 6.59884L4.28533 6.65615V6.64615ZM4.28533 19.5559L4.24676 19.5947L4.28533 19.633V19.5817L4.27432 19.5689C4.27788 19.5659 4.28156 19.5629 4.28533 19.5599V19.5559ZM4.78533 19.7621L4.78358 19.7639C4.78476 19.7733 4.78533 19.7825 4.78533 19.7912V19.7621ZM19.764 19.4062L19.7616 19.4032L19.764 19.4062L19.764 19.4062Z" fill="#F4F4F4" stroke="#090836"/>
</svg>
