<svg width="12" height="15" viewBox="0 0 12 15" fill="none" xmlns="http://www.w3.org/2000/svg">
<path d="M0.9 3.83341V3.93341H1H1.56667V11.8334C1.56667 12.3904 1.78792 12.9245 2.18174 13.3183C2.57557 13.7122 3.10971 13.9334 3.66667 13.9334H8.33333C8.89029 13.9334 9.42443 13.7122 9.81826 13.3183C10.2121 12.9245 10.4333 12.3904 10.4333 11.8334V3.93341H11H11.1V3.83341V1.83341V1.73341H11H8.04142L7.40404 1.09604L7.37475 1.06675H7.33333H4.66667H4.62525L4.59596 1.09604L3.95858 1.73341H1H0.9V1.83341V3.83341ZM7.59596 2.57079L7.62525 2.60008H7.66667H10.2333V3.06675H1.76667V2.60008H4.33333H4.37475L4.40404 2.57079L5.04142 1.93341H6.95858L7.59596 2.57079ZM3.66667 5.06675H3.56667V5.16675V11.8334V11.9334H3.66667H4.33333H4.43333V11.8334V5.16675V5.06675H4.33333H3.66667ZM7.66667 5.06675H7.56667V5.16675V11.8334V11.9334H7.66667H8.33333H8.43333V11.8334V5.16675V5.06675H8.33333H7.66667ZM2.43333 11.8334V3.93341H9.56667V11.8334C9.56667 12.1605 9.43673 12.4742 9.20543 12.7055C8.97414 12.9368 8.66043 13.0667 8.33333 13.0667H3.66667C3.33957 13.0667 3.02586 12.9368 2.79457 12.7055C2.56327 12.4742 2.43333 12.1605 2.43333 11.8334Z" fill="#F80505" stroke="#F80505" stroke-width="0.2"/>
</svg>
