<svg width="12" height="12" viewBox="0 0 12 12" fill="none" xmlns="http://www.w3.org/2000/svg">
<path d="M6 12C4.89733 12 4 11.1027 4 10L4.03533 7.96467L2.012 8C0.897333 8 0 7.10267 0 6C0 4.89733 0.897333 4 2 4L4.03533 3.964L4 2.012C4 0.897333 4.89733 0 6 0C7.10267 0 8 0.897333 8 2L8.03667 3.964L10.012 4C11.1027 4 12 4.89733 12 6C12 7.10267 11.1027 8 10 8L8.03667 7.96467L8 10.012C8 11.1027 7.10267 12 6 12ZM5.33333 6.66667V10.012C5.33333 10.3673 5.63267 10.6667 6 10.6667C6.36733 10.6667 6.66667 10.3673 6.66667 10V6.66667H10.012C10.3673 6.66667 10.6667 6.36733 10.6667 6C10.6667 5.63267 10.3673 5.33333 10 5.33333H6.66667V2C6.66667 1.62067 6.36733 1.33333 6 1.33333C5.63267 1.33333 5.33333 1.63267 5.33333 2V5.33333H2C1.62067 5.33333 1.33333 5.63267 1.33333 6C1.33333 6.36733 1.63267 6.66667 2 6.66667H5.33333Z" fill="#23217A"/>
</svg>
