<svg width="48" height="49" viewBox="0 0 48 49" fill="none" xmlns="http://www.w3.org/2000/svg">
<path d="M24 48.5C10.7294 48.5 0 37.7706 0 24.5C0 11.2294 10.7294 0.5 24 0.5C37.2706 0.5 48 11.2294 48 24.5C48 37.7706 37.1294 48.5 24 48.5ZM24 3.32353C12.2824 3.32353 2.82353 12.7824 2.82353 24.5C2.82353 36.2176 12.2824 45.6765 24 45.6765C35.7176 45.6765 45.1765 36.2176 45.1765 24.5C45.1765 12.7824 35.5765 3.32353 24 3.32353Z" fill="white"/>
<path d="M10.1652 42.1838L7.62402 41.0544C8.32991 39.3603 10.5887 38.3721 12.9887 37.2427C15.3887 36.1132 18.3534 34.8427 18.3534 33.2897V31.1721C17.5064 30.4662 16.0946 28.9132 15.8123 26.6544C15.1064 25.9485 13.977 24.678 13.977 22.9838C13.977 21.9956 14.4005 21.1485 14.6828 20.5838C14.4005 19.4544 14.1181 17.3368 14.1181 15.6427C14.1181 10.1368 17.9299 6.46619 24.0005 6.46619C25.6946 6.46619 27.8123 6.88972 28.9417 8.1603C31.624 8.72501 33.8828 11.8309 33.8828 15.6427C33.8828 18.0427 33.4593 20.0191 33.177 21.0074C33.4593 21.4309 33.7417 22.1368 33.7417 22.9838C33.7417 24.8191 32.7534 26.0897 31.9064 26.6544C31.624 28.9132 30.3534 30.325 29.5064 31.0309V33.2897C29.5064 34.5603 32.0476 35.5485 34.3064 36.3956C36.9887 37.3838 39.8123 38.5132 40.8005 40.7721L38.1181 41.7603C37.6946 40.6309 35.4358 39.7838 33.3181 39.0779C30.2123 37.9485 26.6828 36.6779 26.6828 33.4309V29.7603L27.3887 29.3368C27.3887 29.3368 29.0828 28.2074 29.0828 25.9485V24.9603L29.9299 24.5368C30.0711 24.5368 30.777 24.1132 30.777 22.9838C30.777 22.7015 30.4946 22.278 30.3534 22.1368L29.7887 21.5721L30.0711 20.8662C30.0711 20.8662 30.777 18.6074 30.777 15.7838C30.777 13.1015 29.224 11.125 27.9534 11.125H27.1064L26.6828 10.4191C26.6828 9.85442 25.6946 9.28972 24.0005 9.28972C19.624 9.28972 16.9417 11.6897 16.9417 15.6427C16.9417 17.478 17.6476 20.5838 17.6476 20.5838L17.7887 21.2897L17.224 21.9956C17.0828 21.9956 16.8005 22.4191 16.8005 22.9838C16.8005 23.6897 17.6476 24.5368 18.0711 24.8191L18.6358 25.2427V25.9485C18.6358 28.0662 20.4711 29.1956 20.4711 29.3368L21.177 29.7603V33.4309C21.177 36.8191 17.5064 38.5132 14.1181 39.925C12.5652 40.4897 10.4476 41.4779 10.1652 42.1838Z" fill="white"/>
</svg>
