<svg width="48" height="32" viewBox="0 0 48 32" fill="none" xmlns="http://www.w3.org/2000/svg">
<path d="M10.0018 3.18998e-06H10.0498C10.1297 3.18998e-06 10.2124 0.00667031 10.2977 0.0200036L10.0018 3.18998e-06ZM10.0018 3.18998e-06C10.2645 -0.000466199 10.5248 0.0508698 10.7678 0.151077C11.0107 0.251283 11.2315 0.398396 11.4175 0.584003L19.4161 8.584C19.6964 8.86372 19.8875 9.22041 19.9649 9.60884C20.0424 9.99727 20.0028 10.4 19.8511 10.7659C19.6995 11.1317 19.4426 11.4444 19.1131 11.6641C18.7836 11.8838 18.3963 12.0007 18.0003 12H12.0014V22C12.0015 23.4915 12.557 24.9296 13.5596 26.0337C14.5622 27.1378 15.9401 27.8288 17.4244 27.972L18.0003 28H23.9992C24.4989 27.9991 24.9809 28.1853 25.3501 28.522C25.7194 28.8588 25.9492 29.3215 25.9944 29.8193C26.0395 30.317 25.8967 30.8136 25.5941 31.2113C25.2914 31.609 24.8509 31.879 24.3592 31.968L23.9992 32H18.0003C15.4619 32.0004 13.0184 31.0351 11.1654 29.2998C9.31238 27.5646 8.18865 25.1894 8.02213 22.656L8.00213 22V12H2.00322C1.60721 12.0007 1.2199 11.8838 0.890405 11.6641C0.560908 11.4444 0.304057 11.1317 0.152414 10.7659C0.000771746 10.4 -0.0388335 9.99727 0.0386196 9.60884C0.116073 9.22041 0.307096 8.86372 0.587473 8.584L8.58603 0.584003L8.63802 0.540003L8.79399 0.408003L8.58603 0.584003C8.77207 0.398396 8.99286 0.251283 9.23579 0.151077C9.47871 0.0508698 9.739 -0.000466199 10.0018 3.18998e-06ZM37.8127 31.992L37.8967 31.996L37.7847 31.988L37.7208 31.976H37.7128L37.5768 31.956L37.3928 31.908L37.2328 31.848L36.9289 31.688L36.7889 31.592L36.7689 31.58L36.7649 31.576L36.7089 31.532L36.7489 31.564L36.7889 31.592L36.629 31.46L28.5864 23.416C28.3265 23.1571 28.1428 22.8316 28.0555 22.4753C27.9681 22.119 27.9804 21.7455 28.0911 21.3957C28.2017 21.0458 28.4065 20.7332 28.6829 20.492C28.9593 20.2508 29.2967 20.0903 29.6582 20.028L29.9982 20H35.9971V10C35.997 8.50847 35.4415 7.07044 34.4389 5.96633C33.4363 4.86222 32.0584 4.17119 30.574 4.028L29.9982 4H23.9992C23.4995 4.00092 23.0176 3.81469 22.6483 3.47797C22.2791 3.14125 22.0492 2.67846 22.0041 2.18072C21.9589 1.68298 22.1018 1.18636 22.4044 0.788677C22.7071 0.390988 23.1476 0.121044 23.6393 0.0320028L23.9992 3.18998e-06H29.9982C32.5366 -0.000387794 34.9801 0.964934 36.8331 2.70016C38.6861 4.43539 39.8098 6.8106 39.9763 9.344L39.9963 10V20H45.9953C46.362 19.9991 46.722 20.099 47.0357 20.289C47.3495 20.4789 47.605 20.7515 47.7743 21.0769C47.9435 21.4023 48.0201 21.768 47.9955 22.134C47.9709 22.5 47.8462 22.8521 47.635 23.152L47.411 23.416L39.3565 31.464C38.9871 31.8079 38.5013 31.9993 37.9967 32L37.7248 31.976L37.8127 31.992ZM37.9167 32H37.9967L37.8967 31.996L37.9167 32Z" fill="white"/>
</svg>
