<svg width="38" height="38" viewBox="0 0 38 38" fill="none" xmlns="http://www.w3.org/2000/svg">
<path d="M19.9608 4.01365L23.9744 0L38 14.0037L33.9643 18.0173C32.8089 17.2705 31.4324 16.9419 30.0642 17.0863C28.6959 17.2308 27.4184 17.8395 26.4443 18.8112L24.7904 20.4652C22.7615 22.5161 22.4969 25.6477 24.0185 27.9853L19.9829 31.9989L14.6682 26.6842L8.49338 32.837C7.56717 33.7632 1.03955 38.8133 0.113329 37.8871C-0.812888 36.9609 4.21515 30.4111 5.14136 29.4849L11.2941 23.3321L5.97937 17.9953L10.015 13.9816C12.3306 15.5033 15.4841 15.2386 17.513 13.1877L19.1669 11.5337C21.2178 9.50486 21.4825 6.35127 19.9608 4.01365Z" fill="white"/>
</svg>
