<svg width="40" height="40" viewBox="0 0 40 40" fill="none" xmlns="http://www.w3.org/2000/svg">
<mask id="path-1-inside-1_425_317" fill="white">
<path d="M17.8572 20C17.8572 20.5683 18.0829 21.1134 18.4848 21.5152C18.8867 21.9171 19.4317 22.1429 20 22.1429C20.5683 22.1429 21.1134 21.9171 21.5152 21.5152C21.9171 21.1134 22.1428 20.5683 22.1428 20C22.1428 19.4317 21.9171 18.8866 21.5152 18.4848C21.1134 18.0829 20.5683 17.8571 20 17.8571C19.4317 17.8571 18.8867 18.0829 18.4848 18.4848C18.0829 18.8866 17.8572 19.4317 17.8572 20ZM26.7856 20C26.7856 20.5683 27.0114 21.1134 27.4133 21.5152C27.8151 21.9171 28.3601 22.1429 28.9285 22.1429C29.4968 22.1429 30.0418 21.9171 30.4437 21.5152C30.8455 21.1134 31.0713 20.5683 31.0713 20C31.0713 19.4317 30.8455 18.8866 30.4437 18.4848C30.0418 18.0829 29.4968 17.8571 28.9285 17.8571C28.3601 17.8571 27.8151 18.0829 27.4133 18.4848C27.0114 18.8866 26.7856 19.4317 26.7856 20ZM8.92871 20C8.92871 20.5683 9.15448 21.1134 9.55633 21.5152C9.95819 21.9171 10.5032 22.1429 11.0715 22.1429C11.6399 22.1429 12.1849 21.9171 12.5868 21.5152C12.9886 21.1134 13.2144 20.5683 13.2144 20C13.2144 19.4317 12.9886 18.8866 12.5868 18.4848C12.1849 18.0829 11.6399 17.8571 11.0715 17.8571C10.5032 17.8571 9.95819 18.0829 9.55633 18.4848C9.15448 18.8866 8.92871 19.4317 8.92871 20ZM38.4462 12.25C37.4373 9.85268 35.9909 7.70089 34.1471 5.85268C32.3163 4.01521 30.1429 2.55461 27.7499 1.55357C25.2946 0.522322 22.6875 0 20 0H19.9107C17.2054 0.0133929 14.5849 0.549107 12.1206 1.60268C9.74818 2.61398 7.59512 4.07717 5.78143 5.91071C3.95556 7.75446 2.52254 9.89732 1.53148 12.2857C0.504711 14.7589 -0.0131394 17.3884 0.000253268 20.0938C0.0154015 23.1941 0.748868 26.2487 2.14308 29.0179V35.8036C2.14308 36.3482 2.35944 36.8705 2.74455 37.2557C3.12967 37.6408 3.652 37.8571 4.19663 37.8571H10.9867C13.7559 39.2514 16.8104 39.9849 19.9107 40H20.0045C22.6785 40 25.2723 39.4821 27.7142 38.4688C30.0951 37.4797 32.2604 36.0361 34.0891 34.2188C35.9328 32.3929 37.3837 30.2589 38.3971 27.8795C39.4507 25.4152 39.9864 22.7946 39.9998 20.0893C40.0131 17.3705 39.4864 14.7321 38.4462 12.25ZM31.7007 31.8036C28.5713 34.9018 24.4196 36.6071 20 36.6071H19.9241C17.2322 36.5938 14.5581 35.9241 12.1965 34.6652L11.8215 34.4643H5.5359V28.1786L5.33501 27.8036C4.0761 25.442 3.40646 22.7679 3.39307 20.0759C3.37521 15.625 5.07608 11.4464 8.19658 8.29911C11.3126 5.15179 15.4777 3.41071 19.9286 3.39286H20.0045C22.2366 3.39286 24.4017 3.82589 26.4419 4.68304C28.4329 5.51786 30.2186 6.71875 31.7543 8.25446C33.2856 9.78571 34.4909 11.5759 35.3257 13.567C36.1918 15.6295 36.6248 17.817 36.6159 20.0759C36.5891 24.5223 34.8436 28.6875 31.7007 31.8036Z"/>
</mask>
<path d="M17.8572 20C17.8572 20.5683 18.0829 21.1134 18.4848 21.5152C18.8867 21.9171 19.4317 22.1429 20 22.1429C20.5683 22.1429 21.1134 21.9171 21.5152 21.5152C21.9171 21.1134 22.1428 20.5683 22.1428 20C22.1428 19.4317 21.9171 18.8866 21.5152 18.4848C21.1134 18.0829 20.5683 17.8571 20 17.8571C19.4317 17.8571 18.8867 18.0829 18.4848 18.4848C18.0829 18.8866 17.8572 19.4317 17.8572 20ZM26.7856 20C26.7856 20.5683 27.0114 21.1134 27.4133 21.5152C27.8151 21.9171 28.3601 22.1429 28.9285 22.1429C29.4968 22.1429 30.0418 21.9171 30.4437 21.5152C30.8455 21.1134 31.0713 20.5683 31.0713 20C31.0713 19.4317 30.8455 18.8866 30.4437 18.4848C30.0418 18.0829 29.4968 17.8571 28.9285 17.8571C28.3601 17.8571 27.8151 18.0829 27.4133 18.4848C27.0114 18.8866 26.7856 19.4317 26.7856 20ZM8.92871 20C8.92871 20.5683 9.15448 21.1134 9.55633 21.5152C9.95819 21.9171 10.5032 22.1429 11.0715 22.1429C11.6399 22.1429 12.1849 21.9171 12.5868 21.5152C12.9886 21.1134 13.2144 20.5683 13.2144 20C13.2144 19.4317 12.9886 18.8866 12.5868 18.4848C12.1849 18.0829 11.6399 17.8571 11.0715 17.8571C10.5032 17.8571 9.95819 18.0829 9.55633 18.4848C9.15448 18.8866 8.92871 19.4317 8.92871 20ZM38.4462 12.25C37.4373 9.85268 35.9909 7.70089 34.1471 5.85268C32.3163 4.01521 30.1429 2.55461 27.7499 1.55357C25.2946 0.522322 22.6875 0 20 0H19.9107C17.2054 0.0133929 14.5849 0.549107 12.1206 1.60268C9.74818 2.61398 7.59512 4.07717 5.78143 5.91071C3.95556 7.75446 2.52254 9.89732 1.53148 12.2857C0.504711 14.7589 -0.0131394 17.3884 0.000253268 20.0938C0.0154015 23.1941 0.748868 26.2487 2.14308 29.0179V35.8036C2.14308 36.3482 2.35944 36.8705 2.74455 37.2557C3.12967 37.6408 3.652 37.8571 4.19663 37.8571H10.9867C13.7559 39.2514 16.8104 39.9849 19.9107 40H20.0045C22.6785 40 25.2723 39.4821 27.7142 38.4688C30.0951 37.4797 32.2604 36.0361 34.0891 34.2188C35.9328 32.3929 37.3837 30.2589 38.3971 27.8795C39.4507 25.4152 39.9864 22.7946 39.9998 20.0893C40.0131 17.3705 39.4864 14.7321 38.4462 12.25ZM31.7007 31.8036C28.5713 34.9018 24.4196 36.6071 20 36.6071H19.9241C17.2322 36.5938 14.5581 35.9241 12.1965 34.6652L11.8215 34.4643H5.5359V28.1786L5.33501 27.8036C4.0761 25.442 3.40646 22.7679 3.39307 20.0759C3.37521 15.625 5.07608 11.4464 8.19658 8.29911C11.3126 5.15179 15.4777 3.41071 19.9286 3.39286H20.0045C22.2366 3.39286 24.4017 3.82589 26.4419 4.68304C28.4329 5.51786 30.2186 6.71875 31.7543 8.25446C33.2856 9.78571 34.4909 11.5759 35.3257 13.567C36.1918 15.6295 36.6248 17.817 36.6159 20.0759C36.5891 24.5223 34.8436 28.6875 31.7007 31.8036Z" fill="white"/>
<path d="M17.8572 20H3.85717H17.8572ZM20 17.8571V3.85714V17.8571ZM28.9285 17.8571V3.85714V17.8571ZM8.92871 20H-5.07129H8.92871ZM13.2144 20H27.2144H13.2144ZM11.0715 17.8571V3.85714V17.8571ZM38.4462 12.25L51.3583 6.83907L51.3542 6.82924L51.35 6.81941L38.4462 12.25ZM34.1471 5.85268L24.2298 15.7343L24.2356 15.7401L34.1471 5.85268ZM27.7499 1.55357L22.3286 14.4613L22.3378 14.4652L22.347 14.469L27.7499 1.55357ZM19.9107 0V-14H19.8761L19.8414 -13.9998L19.9107 0ZM12.1206 1.60268L17.6105 14.4814L17.6174 14.4785L17.6243 14.4755L12.1206 1.60268ZM5.78143 5.91071L15.729 15.7619L15.7347 15.7562L5.78143 5.91071ZM1.53148 12.2857L14.4615 17.6537L14.4624 17.6514L1.53148 12.2857ZM0.000253268 20.0938L14.0001 20.0253L14.0001 20.0244L0.000253268 20.0938ZM2.14308 29.0179H16.1431V25.6924L14.6476 22.7221L2.14308 29.0179ZM2.14308 35.8036H-11.8569H2.14308ZM10.9867 37.8571L17.2826 25.3527L14.3123 23.8571H10.9867V37.8571ZM19.9107 40L19.8423 53.9998L19.8765 54H19.9107V40ZM27.7142 38.4688L33.0804 51.3995L33.0851 51.3975L27.7142 38.4688ZM34.0891 34.2188L24.2378 24.2713L24.2292 24.2799L24.2205 24.2885L34.0891 34.2188ZM38.3971 27.8795L25.5242 22.3759L25.5204 22.3849L25.5166 22.3938L38.3971 27.8795ZM39.9998 20.0893L53.9996 20.1586L53.9996 20.1583L39.9998 20.0893ZM31.7007 31.8036L41.5505 41.7526L41.5578 41.7453L31.7007 31.8036ZM19.9241 36.6071L19.8545 50.607L19.8893 50.6071H19.9241V36.6071ZM12.1965 34.6652L5.58538 47.0059L5.59801 47.0126L5.61066 47.0194L12.1965 34.6652ZM11.8215 34.4643L18.4327 22.1236L15.3353 20.4643H11.8215V34.4643ZM5.5359 34.4643H-8.4641V48.4643H5.5359V34.4643ZM5.5359 28.1786H19.5359V24.6648L17.8767 21.5676L5.5359 28.1786ZM5.33501 27.8036L-7.01926 34.3893L-7.01252 34.402L-7.00575 34.4146L5.33501 27.8036ZM3.39307 20.0759L-10.6068 20.1321L-10.6068 20.1455L3.39307 20.0759ZM8.19658 8.29911L18.1384 18.1561L18.1454 18.149L8.19658 8.29911ZM19.9286 3.39286V-10.6071H19.9005L19.8724 -10.607L19.9286 3.39286ZM26.4419 4.68304L21.0191 17.5902L21.0285 17.5941L26.4419 4.68304ZM35.3257 13.567L22.4146 18.9803L22.4175 18.9872L35.3257 13.567ZM36.6159 20.0759L50.6156 20.1602L50.6157 20.1457L50.6158 20.1312L36.6159 20.0759ZM3.85717 20C3.85717 24.2813 5.55789 28.3873 8.58524 31.4147L28.3843 11.6158C30.608 13.8395 31.8572 16.8553 31.8572 20H3.85717ZM8.58524 31.4147C11.6126 34.442 15.7186 36.1429 20 36.1429V8.14286C23.1448 8.14286 26.1607 9.39214 28.3843 11.6158L8.58524 31.4147ZM20 36.1429C24.2814 36.1429 28.3874 34.442 31.4148 31.4147L11.6157 11.6158C13.8393 9.39215 16.8552 8.14286 20 8.14286V36.1429ZM31.4148 31.4147C34.4421 28.3873 36.1428 24.2813 36.1428 20H8.14283C8.14283 16.8553 9.39204 13.8394 11.6157 11.6158L31.4148 31.4147ZM36.1428 20C36.1428 15.7187 34.4421 11.6127 31.4148 8.58534L11.6157 28.3842C9.39204 26.1606 8.14283 23.1447 8.14283 20H36.1428ZM31.4148 8.58534C28.3874 5.55795 24.2814 3.85714 20 3.85714V31.8571C16.8552 31.8571 13.8393 30.6079 11.6157 28.3842L31.4148 8.58534ZM20 3.85714C15.7186 3.85714 11.6126 5.55794 8.58524 8.58534L28.3843 28.3842C26.1607 30.6079 23.1448 31.8571 20 31.8571V3.85714ZM8.58524 8.58534C5.55788 11.6127 3.85717 15.7187 3.85717 20H31.8572C31.8572 23.1446 30.608 26.1605 28.3843 28.3842L8.58524 8.58534ZM12.7856 20C12.7856 24.2813 14.4864 28.3873 17.5137 31.4147L37.3128 11.6158C39.5364 13.8394 40.7856 16.8553 40.7856 20H12.7856ZM17.5137 31.4147C20.541 34.442 24.647 36.1429 28.9285 36.1429V8.14286C32.0733 8.14286 35.0892 9.39215 37.3128 11.6158L17.5137 31.4147ZM28.9285 36.1429C33.2099 36.1429 37.3159 34.442 40.3432 31.4147L20.5441 11.6158C22.7677 9.39215 25.7837 8.14286 28.9285 8.14286V36.1429ZM40.3432 31.4147C43.3706 28.3873 45.0713 24.2813 45.0713 20H17.0713C17.0713 16.8553 18.3205 13.8394 20.5441 11.6158L40.3432 31.4147ZM45.0713 20C45.0713 15.7187 43.3706 11.6127 40.3432 8.58534L20.5441 28.3842C18.3205 26.1606 17.0713 23.1447 17.0713 20H45.0713ZM40.3432 8.58534C37.3159 5.55795 33.2099 3.85714 28.9285 3.85714V31.8571C25.7837 31.8571 22.7677 30.6079 20.5441 28.3842L40.3432 8.58534ZM28.9285 3.85714C24.6471 3.85714 20.541 5.55795 17.5137 8.58534L37.3128 28.3842C35.0892 30.6079 32.0732 31.8571 28.9285 31.8571V3.85714ZM17.5137 8.58534C14.4864 11.6127 12.7856 15.7187 12.7856 20H40.7856C40.7856 23.1447 39.5364 26.1606 37.3128 28.3842L17.5137 8.58534ZM-5.07129 20C-5.07129 24.2813 -3.37057 28.3873 -0.343223 31.4147L19.4559 11.6158C21.6795 13.8395 22.9287 16.8553 22.9287 20H-5.07129ZM-0.343223 31.4147C2.68412 34.442 6.79013 36.1429 11.0715 36.1429V8.14286C14.2163 8.14286 17.2323 9.39214 19.4559 11.6158L-0.343223 31.4147ZM11.0715 36.1429C15.353 36.1429 19.459 34.442 22.4863 31.4147L2.6872 11.6158C4.91082 9.39214 7.92675 8.14286 11.0715 8.14286V36.1429ZM22.4863 31.4147C25.5137 28.3873 27.2144 24.2813 27.2144 20H-0.785626C-0.785626 16.8553 0.463568 13.8395 2.6872 11.6158L22.4863 31.4147ZM27.2144 20C27.2144 15.7187 25.5137 11.6127 22.4863 8.58534L2.6872 28.3842C0.463561 26.1605 -0.785626 23.1446 -0.785626 20H27.2144ZM22.4863 8.58534C19.459 5.55794 15.3529 3.85714 11.0715 3.85714V31.8571C7.92678 31.8571 4.91084 30.6079 2.6872 28.3842L22.4863 8.58534ZM11.0715 3.85714C6.79015 3.85714 2.68414 5.55794 -0.343223 8.58534L19.4559 28.3842C17.2322 30.6079 14.2163 31.8571 11.0715 31.8571V3.85714ZM-0.343223 8.58534C-3.37058 11.6127 -5.07129 15.7187 -5.07129 20H22.9287C22.9287 23.1446 21.6795 26.1605 19.4559 28.3842L-0.343223 8.58534ZM51.35 6.81941C49.6371 2.74937 47.1719 -0.914017 44.0587 -4.03478L24.2356 15.7401C24.8099 16.3158 25.2374 16.956 25.5424 17.6806L51.35 6.81941ZM44.0645 -4.02897C40.9416 -7.1631 37.2344 -9.65441 33.1528 -11.3619L22.347 14.469C23.0513 14.7636 23.691 15.1935 24.2298 15.7343L44.0645 -4.02897ZM33.1712 -11.3542C28.9818 -13.1137 24.5301 -14 20 -14V14C20.8449 14 21.6073 14.1584 22.3286 14.4613L33.1712 -11.3542ZM20 -14H19.9107V14H20V-14ZM19.8414 -13.9998C15.3039 -13.9774 10.8324 -13.0724 6.61697 -11.2701L17.6243 14.4755C18.3374 14.1706 19.1069 14.0042 19.98 13.9998L19.8414 -13.9998ZM6.63082 -11.2761C2.58792 -9.55269 -1.0811 -7.05928 -4.17179 -3.93476L15.7347 15.7562C16.2713 15.2136 16.9084 14.7807 17.6105 14.4814L6.63082 -11.2761ZM-4.16618 -3.94043C-7.24823 -0.828198 -9.70329 2.83236 -11.3995 6.92004L14.4624 17.6514C14.7484 16.9623 15.1594 16.3371 15.729 15.7619L-4.16618 -3.94043ZM-11.3985 6.91773C-13.1437 11.1214 -14.0222 15.6002 -13.9996 20.1631L14.0001 20.0244C13.9959 19.1766 14.1531 18.3964 14.4615 17.6537L-11.3985 6.91773ZM-13.9996 20.1622C-13.9739 25.4259 -12.7286 30.6121 -10.3615 35.3136L14.6476 22.7221C14.2263 21.8853 14.0047 20.9622 14.0001 20.0253L-13.9996 20.1622ZM-11.8569 29.0179V35.8036H16.1431V29.0179H-11.8569ZM-11.8569 35.8036C-11.8569 40.0612 -10.1656 44.1445 -7.155 47.1551L12.6441 27.3562C14.8845 29.5966 16.1431 32.6352 16.1431 35.8036H-11.8569ZM-7.155 47.1551C-4.14439 50.1658 -0.0610882 51.8571 4.19663 51.8571V23.8571C7.36508 23.8571 10.4037 25.1158 12.6441 27.3562L-7.155 47.1551ZM4.19663 51.8571H10.9867V23.8571H4.19663V51.8571ZM4.69084 50.3616C9.39237 52.7288 14.5785 53.9741 19.8423 53.9998L19.9791 26.0002C19.0423 25.9956 18.1194 25.774 17.2826 25.3527L4.69084 50.3616ZM19.9107 54H20.0045V26H19.9107V54ZM20.0045 54C24.5132 54 28.931 53.1215 33.0804 51.3995L22.348 25.538C21.6135 25.8428 20.8439 26 20.0045 26V54ZM33.0851 51.3975C37.1458 49.7106 40.8388 47.2486 43.9577 44.149L24.2205 24.2885C23.682 24.8236 23.0443 25.2487 22.3432 25.54L33.0851 51.3975ZM43.9404 44.1662C47.0667 41.0702 49.5495 37.4229 51.2776 33.3651L25.5166 22.3938C25.218 23.095 24.799 23.7156 24.2378 24.2713L43.9404 44.1662ZM51.27 33.383C53.0722 29.1676 53.9771 24.6961 53.9996 20.1586L25.9999 20.02C25.9956 20.8932 25.8291 21.6628 25.5242 22.3759L51.27 33.383ZM53.9996 20.1583C54.0222 15.5574 53.1252 11.0554 51.3583 6.83907L25.5341 17.6609C25.8476 18.4089 26.004 19.1837 25.9999 20.0203L53.9996 20.1583ZM21.851 21.8546C21.3514 22.3492 20.7427 22.6071 20 22.6071V50.6071C28.0964 50.6071 35.7913 47.4543 41.5505 41.7526L21.851 21.8546ZM20 22.6071H19.9241V50.6071H20V22.6071ZM19.9938 22.6073C19.5487 22.6051 19.1144 22.488 18.7824 22.311L5.61066 47.0194C10.0018 49.3603 14.9157 50.5824 19.8545 50.607L19.9938 22.6073ZM18.8077 22.3245L18.4327 22.1236L5.21038 46.805L5.58538 47.0059L18.8077 22.3245ZM11.8215 20.4643H5.5359V48.4643H11.8215V20.4643ZM19.5359 34.4643V28.1786H-8.4641V34.4643H19.5359ZM17.8767 21.5676L17.6758 21.1926L-7.00575 34.4146L-6.80486 34.7896L17.8767 21.5676ZM17.6893 21.2178C17.5123 20.8858 17.3951 20.4514 17.3929 20.0062L-10.6068 20.1455C-10.5822 25.0843 -9.36008 29.9982 -7.01926 34.3893L17.6893 21.2178ZM17.393 20.0197C17.3899 19.251 17.6519 18.6468 18.1384 18.1561L-1.74519 -1.55793C-7.49975 4.2461 -10.6394 11.999 -10.6068 20.1321L17.393 20.0197ZM18.1454 18.149C18.6294 17.6602 19.2284 17.3958 19.9847 17.3927L19.8724 -10.607C11.7271 -10.5744 3.99586 -7.35663 -1.75224 -1.55081L18.1454 18.149ZM19.9286 17.3929H20.0045V-10.6071H19.9286V17.3929ZM20.0045 17.3929C20.3967 17.3929 20.7164 17.463 21.0191 17.5902L31.8646 -8.22408C28.087 -9.8112 24.0764 -10.6071 20.0045 -10.6071V17.3929ZM21.0285 17.5941C21.3304 17.7207 21.5952 17.8943 21.8548 18.1539L41.6539 -1.64497C38.842 -4.45685 35.5354 -6.68497 31.8553 -8.22799L21.0285 17.5941ZM21.8548 18.1539C22.1118 18.4109 22.289 18.6807 22.4146 18.9803L48.2368 8.15364C46.6928 4.47105 44.4593 1.16053 41.6539 -1.64497L21.8548 18.1539ZM22.4175 18.9872C22.547 19.2956 22.6176 19.619 22.616 20.0206L50.6158 20.1312C50.632 16.0149 49.8365 11.9633 48.2339 8.14672L22.4175 18.9872ZM22.6161 19.9916C22.6115 20.7535 22.3416 21.3681 21.8436 21.8619L41.5578 41.7453C47.3455 36.0069 50.5666 28.2911 50.6156 20.1602L22.6161 19.9916Z" fill="white" mask="url(#path-1-inside-1_425_317)"/>
</svg>
