<svg width="40" height="32" viewBox="0 0 40 32" fill="none" xmlns="http://www.w3.org/2000/svg">
<path d="M20 24.0001C19.1267 24.0003 18.2808 23.7566 17.608 23.3112C16.9353 22.8657 16.478 22.2464 16.315 21.5601C13.8628 20.9538 11.7034 19.7583 10.13 18.1361C8.94221 16.9125 8.12606 15.4848 7.74592 13.9656C7.36578 12.4465 7.43205 10.8775 7.9395 9.38235C8.44695 7.88721 9.3817 6.50685 10.67 5.35014C11.9584 4.19343 13.565 3.29201 15.3633 2.71699C17.1615 2.14196 19.1022 1.90906 21.0322 2.03666C22.9622 2.16425 24.8288 2.64885 26.4846 3.45223C28.1405 4.25561 29.5404 5.35579 30.5739 6.666C31.6074 7.9762 32.2462 9.4606 32.44 11.0021C32.5075 11.5521 31.94 12.0001 31.25 12.0001C30.56 12.0001 30.0075 11.5501 29.925 11.0021C29.7019 9.58776 29.0104 8.2468 27.9221 7.11799C26.8338 5.98917 25.3883 5.1135 23.7351 4.58157C22.0818 4.04965 20.2809 3.88079 18.5187 4.09249C16.7565 4.30418 15.0971 4.88872 13.712 5.78564C12.327 6.68255 11.2666 7.85926 10.6408 9.19399C10.0149 10.5287 9.84625 11.973 10.1522 13.3774C10.4582 14.7818 11.2277 16.0953 12.381 17.1819C13.5344 18.2686 15.0298 19.0889 16.7125 19.5581C17.0306 19.0938 17.4967 18.7051 18.0633 18.4316C18.6299 18.158 19.277 18.0093 19.9387 18.0005C20.6005 17.9917 21.2533 18.1232 21.831 18.3816C22.4086 18.64 22.8905 19.0161 23.2277 19.4717C23.5649 19.9273 23.7454 20.4461 23.7508 20.9756C23.7562 21.505 23.5863 22.0262 23.2585 22.4861C22.9307 22.9461 22.4565 23.3284 21.8842 23.5943C21.3119 23.8602 20.6618 24.0002 20 24.0001ZM10 21.0001V20.9461C9.31642 20.4563 8.69046 19.9174 8.13 19.3361C7.71929 19.8289 7.50008 20.4078 7.5 21.0001V22.0001C7.5 25.9421 12.15 30.0001 20 30.0001C27.85 30.0001 32.5 25.9421 32.5 22.0001V21.0001C32.5 20.2044 32.1049 19.4414 31.4017 18.8788C30.6984 18.3162 29.7446 18.0001 28.75 18.0001H25C25.5475 18.5801 25.9375 19.2601 26.125 20.0001H28.75C29.0815 20.0001 29.3995 20.1055 29.6339 20.293C29.8683 20.4805 30 20.7349 30 21.0001V22.0001C30 24.8761 26.42 28.0001 20 28.0001C13.58 28.0001 10 24.8761 10 22.0001V21.0001ZM20 16.0001C18.5695 16 17.1823 16.3926 16.07 17.1121C14.977 16.5764 14.0745 15.8248 13.4493 14.9296C12.8242 14.0344 12.4972 13.0256 12.5 12.0001C12.5004 10.9541 12.8426 9.92626 13.4927 9.01867C14.1428 8.11107 15.0782 7.35522 16.2061 6.82607C17.334 6.29693 18.6153 6.01288 19.9227 6.0021C21.2302 5.99133 22.5185 6.2542 23.6598 6.76464C24.8011 7.27508 25.7558 8.01536 26.4291 8.91205C27.1025 9.80873 27.4711 10.8307 27.4984 11.8765C27.5257 12.9223 27.2107 13.9556 26.5848 14.874C25.9589 15.7924 25.0437 16.564 23.93 17.1121C22.8177 16.3926 21.4305 16 20 16.0001ZM15 12.0001C15 13.061 15.5268 14.0784 16.4645 14.8285C17.4021 15.5787 18.6739 16.0001 20 16.0001C21.3261 16.0001 22.5979 15.5787 23.5355 14.8285C24.4732 14.0784 25 13.061 25 12.0001C25 10.9392 24.4732 9.92181 23.5355 9.17167C22.5979 8.42152 21.3261 8.00009 20 8.00009C18.6739 8.00009 17.4021 8.42152 16.4645 9.17167C15.5268 9.92181 15 10.9392 15 12.0001Z" fill="white"/>
</svg>
