<svg width="32" height="33" viewBox="0 0 32 33" fill="none" xmlns="http://www.w3.org/2000/svg">
<path d="M16 32.5C7.15294 32.5 0 25.3471 0 16.5C0 7.65294 7.15294 0.5 16 0.5C24.8471 0.5 32 7.65294 32 16.5C32 25.3471 24.7529 32.5 16 32.5ZM16 2.38235C8.18824 2.38235 1.88235 8.68824 1.88235 16.5C1.88235 24.3118 8.18824 30.6176 16 30.6176C23.8118 30.6176 30.1176 24.3118 30.1176 16.5C30.1176 8.68824 23.7176 2.38235 16 2.38235Z" fill="white"/>
<path d="M6.77713 28.231L5.08301 27.478C5.5536 26.3486 7.05948 25.6898 8.65948 24.9368C10.2595 24.1839 12.2359 23.3368 12.2359 22.3015V20.8898C11.6712 20.4192 10.7301 19.3839 10.5418 17.878C10.0712 17.4074 9.3183 16.5604 9.3183 15.431C9.3183 14.7721 9.60065 14.2074 9.78889 13.831C9.60065 13.078 9.41242 11.6662 9.41242 10.5368C9.41242 6.86625 11.9536 4.41919 16.0007 4.41919C17.1301 4.41919 18.5418 4.70154 19.2948 5.5486C21.083 5.92507 22.5889 7.99566 22.5889 10.5368C22.5889 12.1368 22.3065 13.4545 22.1183 14.1133C22.3065 14.3957 22.4948 14.8662 22.4948 15.431C22.4948 16.6545 21.8359 17.5015 21.2712 17.878C21.083 19.3839 20.2359 20.3251 19.6712 20.7957V22.3015C19.6712 23.1486 21.3654 23.8074 22.8712 24.3721C24.6595 25.031 26.5418 25.7839 27.2007 27.2898L25.4124 27.9486C25.1301 27.1957 23.6242 26.631 22.2124 26.1604C20.1418 25.4074 17.7889 24.5604 17.7889 22.3957V19.9486L18.2595 19.6662C18.2595 19.6662 19.3889 18.9133 19.3889 17.4074V16.7486L19.9536 16.4662C20.0477 16.4662 20.5183 16.1839 20.5183 15.431C20.5183 15.2427 20.3301 14.9604 20.2359 14.8662L19.8595 14.4898L20.0477 14.0192C20.0477 14.0192 20.5183 12.5133 20.5183 10.631C20.5183 8.84272 19.483 7.52507 18.6359 7.52507H18.0712L17.7889 7.05448C17.7889 6.67801 17.1301 6.30154 16.0007 6.30154C13.083 6.30154 11.2948 7.90154 11.2948 10.5368C11.2948 11.7604 11.7654 13.831 11.7654 13.831L11.8595 14.3015L11.483 14.7721C11.3889 14.7721 11.2007 15.0545 11.2007 15.431C11.2007 15.9015 11.7654 16.4662 12.0477 16.6545L12.4242 16.9368V17.4074C12.4242 18.8192 13.6477 19.5721 13.6477 19.6662L14.1183 19.9486V22.3957C14.1183 24.6545 11.6712 25.7839 9.41242 26.7251C8.37713 27.1015 6.96536 27.7604 6.77713 28.231Z" fill="white"/>
</svg>
