<svg width="40" height="32" viewBox="0 0 40 32" fill="none" xmlns="http://www.w3.org/2000/svg">
<mask id="path-1-inside-1_425_251" fill="white">
<path d="M32.4999 13.3332C32.4999 13.1564 32.4121 12.9868 32.2558 12.8618C32.0996 12.7368 31.8876 12.6666 31.6666 12.6666C31.4456 12.6666 31.2336 12.7368 31.0773 12.8618C30.921 12.9868 30.8332 13.1564 30.8332 13.3332H32.4999ZM9.16658 13.3332C9.16658 13.1564 9.07878 12.9868 8.9225 12.8618C8.76622 12.7368 8.55426 12.6666 8.33325 12.6666C8.11223 12.6666 7.90027 12.7368 7.74399 12.8618C7.58771 12.9868 7.49991 13.1564 7.49991 13.3332H9.16658ZM34.4099 16.4719C34.5664 16.5971 34.7786 16.6674 34.9999 16.6674C35.2212 16.6674 35.4334 16.5971 35.5899 16.4719C35.7464 16.3467 35.8343 16.1769 35.8343 15.9999C35.8343 15.8229 35.7464 15.6531 35.5899 15.5279L34.4099 16.4719ZM19.9999 3.99989L20.5899 3.52789C20.5125 3.46581 20.4205 3.41655 20.3193 3.38294C20.2181 3.34933 20.1095 3.33203 19.9999 3.33203C19.8903 3.33203 19.7818 3.34933 19.6805 3.38294C19.5793 3.41655 19.4873 3.46581 19.4099 3.52789L19.9999 3.99989ZM4.40991 15.5279C4.25344 15.6531 4.16553 15.8229 4.16553 15.9999C4.16553 16.1769 4.25344 16.3467 4.40991 16.4719C4.56639 16.5971 4.77862 16.6674 4.99991 16.6674C5.22121 16.6674 5.43344 16.5971 5.58991 16.4719L4.40991 15.5279ZM11.6666 28.6666H28.3332V27.3332H11.6666V28.6666ZM32.4999 25.3332V13.3332H30.8332V25.3332H32.4999ZM9.16658 25.3332V13.3332H7.49991V25.3332H9.16658ZM35.5899 15.5279L20.5899 3.52789L19.4099 4.47189L34.4099 16.4719L35.5899 15.5279ZM19.4099 3.52789L4.40991 15.5279L5.58991 16.4719L20.5899 4.47189L19.4099 3.52789ZM28.3332 28.6666C29.4383 28.6666 30.4981 28.3154 31.2795 27.6902C32.0609 27.0651 32.4999 26.2173 32.4999 25.3332H30.8332C30.8332 25.8637 30.5699 26.3724 30.101 26.7474C29.6322 27.1225 28.9963 27.3332 28.3332 27.3332V28.6666ZM11.6666 27.3332C11.0035 27.3332 10.3677 27.1225 9.89881 26.7474C9.42997 26.3724 9.16658 25.8637 9.16658 25.3332H7.49991C7.49991 26.2173 7.9389 27.0651 8.7203 27.6902C9.5017 28.3154 10.5615 28.6666 11.6666 28.6666V27.3332Z"/>
</mask>
<path d="M32.4999 13.3332C32.4999 13.1564 32.4121 12.9868 32.2558 12.8618C32.0996 12.7368 31.8876 12.6666 31.6666 12.6666C31.4456 12.6666 31.2336 12.7368 31.0773 12.8618C30.921 12.9868 30.8332 13.1564 30.8332 13.3332H32.4999ZM9.16658 13.3332C9.16658 13.1564 9.07878 12.9868 8.9225 12.8618C8.76622 12.7368 8.55426 12.6666 8.33325 12.6666C8.11223 12.6666 7.90027 12.7368 7.74399 12.8618C7.58771 12.9868 7.49991 13.1564 7.49991 13.3332H9.16658ZM34.4099 16.4719C34.5664 16.5971 34.7786 16.6674 34.9999 16.6674C35.2212 16.6674 35.4334 16.5971 35.5899 16.4719C35.7464 16.3467 35.8343 16.1769 35.8343 15.9999C35.8343 15.8229 35.7464 15.6531 35.5899 15.5279L34.4099 16.4719ZM19.9999 3.99989L20.5899 3.52789C20.5125 3.46581 20.4205 3.41655 20.3193 3.38294C20.2181 3.34933 20.1095 3.33203 19.9999 3.33203C19.8903 3.33203 19.7818 3.34933 19.6805 3.38294C19.5793 3.41655 19.4873 3.46581 19.4099 3.52789L19.9999 3.99989ZM4.40991 15.5279C4.25344 15.6531 4.16553 15.8229 4.16553 15.9999C4.16553 16.1769 4.25344 16.3467 4.40991 16.4719C4.56639 16.5971 4.77862 16.6674 4.99991 16.6674C5.22121 16.6674 5.43344 16.5971 5.58991 16.4719L4.40991 15.5279ZM11.6666 28.6666H28.3332V27.3332H11.6666V28.6666ZM32.4999 25.3332V13.3332H30.8332V25.3332H32.4999ZM9.16658 25.3332V13.3332H7.49991V25.3332H9.16658ZM35.5899 15.5279L20.5899 3.52789L19.4099 4.47189L34.4099 16.4719L35.5899 15.5279ZM19.4099 3.52789L4.40991 15.5279L5.58991 16.4719L20.5899 4.47189L19.4099 3.52789ZM28.3332 28.6666C29.4383 28.6666 30.4981 28.3154 31.2795 27.6902C32.0609 27.0651 32.4999 26.2173 32.4999 25.3332H30.8332C30.8332 25.8637 30.5699 26.3724 30.101 26.7474C29.6322 27.1225 28.9963 27.3332 28.3332 27.3332V28.6666ZM11.6666 27.3332C11.0035 27.3332 10.3677 27.1225 9.89881 26.7474C9.42997 26.3724 9.16658 25.8637 9.16658 25.3332H7.49991C7.49991 26.2173 7.9389 27.0651 8.7203 27.6902C9.5017 28.3154 10.5615 28.6666 11.6666 28.6666V27.3332Z" fill="white"/>
<path d="M30.8332 17.8332H32.4999V8.83322H30.8332V17.8332ZM7.49991 17.8332H9.16658V8.83322H7.49991V17.8332ZM32.7788 12.014L31.5988 12.958L37.221 19.9858L38.401 19.0418L32.7788 12.014ZM8.40104 12.958L7.22104 12.014L1.59879 19.0418L2.77879 19.9858L8.40104 12.958ZM32.8332 28.6666V27.3332H23.8332V28.6666H32.8332ZM7.16658 27.3332V28.6666H16.1666V27.3332H7.16658ZM30.8332 29.8332H32.4999V20.8332H30.8332V29.8332ZM7.49991 29.8332H9.16658V20.8332H7.49991V29.8332ZM34.4099 16.4719L28.7877 23.4997L34.4099 16.4719ZM34.9999 16.6674V7.6674V16.6674ZM35.5899 15.5279L41.2122 8.50007V8.50007L35.5899 15.5279ZM19.9999 3.99989L14.3777 11.0277L19.9999 15.5255L25.6222 11.0277L19.9999 3.99989ZM19.9999 3.33203V12.332V3.33203ZM4.40991 15.5279L10.0322 22.5557L4.40991 15.5279ZM4.16553 15.9999H13.1655H4.16553ZM4.99991 16.6674V25.6674V16.6674ZM5.58991 16.4719L11.2122 23.4997L5.58991 16.4719ZM32.4999 25.3332H41.4999H32.4999ZM7.49991 25.3332H-1.50009H7.49991ZM19.4099 4.47189L13.7877 -2.55593L5.00288 4.47189L13.7877 11.4997L19.4099 4.47189ZM20.5899 4.47189L26.2122 11.4997L34.9969 4.47189L26.2122 -2.55593L20.5899 4.47189ZM41.4999 13.3332C41.4999 10.0388 39.8507 7.41209 37.8781 5.834L26.6336 19.8896C24.9735 18.5616 23.4999 16.274 23.4999 13.3332H41.4999ZM37.8781 5.834C35.9576 4.29761 33.7046 3.66656 31.6666 3.66656V21.6666C30.0706 21.6666 28.2415 21.176 26.6336 19.8896L37.8781 5.834ZM31.6666 3.66656C29.6285 3.66656 27.3756 4.29761 25.4551 5.834L36.6996 19.8896C35.0917 21.176 33.2626 21.6666 31.6666 21.6666V3.66656ZM25.4551 5.834C23.4825 7.41209 21.8332 10.0388 21.8332 13.3332H39.8332C39.8332 16.274 38.3596 18.5616 36.6996 19.8896L25.4551 5.834ZM18.1666 13.3332C18.1666 10.0388 16.5174 7.41207 14.5448 5.834L3.30025 19.8896C1.64021 18.5616 0.16658 16.274 0.16658 13.3332H18.1666ZM14.5448 5.834C12.6243 4.29762 10.3713 3.66656 8.33325 3.66656V21.6666C6.73721 21.6666 4.90816 21.176 3.30025 19.8896L14.5448 5.834ZM8.33325 3.66656C6.29518 3.66656 4.04221 4.29762 2.12174 5.834L13.3662 19.8896C11.7583 21.176 9.92928 21.6666 8.33325 21.6666V3.66656ZM2.12174 5.834C0.149143 7.41207 -1.50009 10.0388 -1.50009 13.3332H16.4999C16.4999 16.274 15.0263 18.5616 13.3662 19.8896L2.12174 5.834ZM28.7877 23.4997C30.7083 25.0363 32.9616 25.6674 34.9999 25.6674V7.6674C36.5957 7.6674 38.4244 8.15789 40.0322 9.44407L28.7877 23.4997ZM34.9999 25.6674C37.0383 25.6674 39.2915 25.0363 41.2122 23.4997L29.9677 9.44407C31.5754 8.15789 33.4042 7.6674 34.9999 7.6674V25.6674ZM41.2122 23.4997C43.185 21.9215 44.8343 19.2945 44.8343 15.9999L26.8343 15.9999C26.8343 13.0593 28.3078 10.772 29.9677 9.44407L41.2122 23.4997ZM44.8343 15.9999C44.8343 12.7053 43.185 10.0783 41.2122 8.50007L29.9677 22.5557C28.3078 21.2278 26.8343 18.9404 26.8343 15.9999L44.8343 15.9999ZM25.6222 11.0277L26.2122 10.5557L14.9677 -3.49993L14.3777 -3.02793L25.6222 11.0277ZM26.2208 -3.49299C25.2487 -4.27268 24.1943 -4.81365 23.1548 -5.15871L17.4838 11.9246C16.6468 11.6468 15.7763 11.2043 14.959 10.5488L26.2208 -3.49299ZM23.1548 -5.15871C22.1139 -5.50426 21.0463 -5.66797 19.9999 -5.66797V12.332C19.1728 12.332 18.3222 12.2029 17.4838 11.9246L23.1548 -5.15871ZM19.9999 -5.66797C18.9535 -5.66797 17.8859 -5.50426 16.845 -5.15871L22.516 11.9246C21.6776 12.2029 20.8271 12.332 19.9999 12.332V-5.66797ZM16.845 -5.15871C15.8056 -4.81365 14.7511 -4.27268 13.779 -3.49299L25.0408 10.5488C24.2235 11.2043 23.353 11.6468 22.516 11.9246L16.845 -5.15871ZM13.7877 10.5557L14.3777 11.0277L25.6222 -3.02793L25.0322 -3.49993L13.7877 10.5557ZM-1.21234 8.50007C-3.18514 10.0783 -4.83447 12.7053 -4.83447 15.9999H13.1655C13.1655 18.9405 11.692 21.2278 10.0322 22.5557L-1.21234 8.50007ZM-4.83447 15.9999C-4.83447 19.2945 -3.18514 21.9215 -1.21234 23.4997L10.0322 9.44407C11.692 10.7719 13.1655 13.0593 13.1655 15.9999H-4.83447ZM-1.21234 23.4997C0.708335 25.0363 2.96157 25.6674 4.99991 25.6674V7.6674C6.59567 7.6674 8.42445 8.15789 10.0322 9.44407L-1.21234 23.4997ZM4.99991 25.6674C7.03825 25.6674 9.29149 25.0363 11.2122 23.4997L-0.032342 9.44407C1.57538 8.15789 3.40416 7.6674 4.99991 7.6674V25.6674ZM11.6666 37.6666H28.3332V19.6666H11.6666V37.6666ZM28.3332 18.3332H11.6666V36.3332H28.3332V18.3332ZM41.4999 25.3332V13.3332H23.4999V25.3332H41.4999ZM21.8332 13.3332V25.3332H39.8332V13.3332H21.8332ZM18.1666 25.3332V13.3332H0.16658V25.3332H18.1666ZM-1.50009 13.3332V25.3332H16.4999V13.3332H-1.50009ZM41.2122 8.50007L26.2122 -3.49993L14.9677 10.5557L29.9677 22.5557L41.2122 8.50007ZM14.9677 -3.49993L13.7877 -2.55593L25.0322 11.4997L26.2122 10.5557L14.9677 -3.49993ZM13.7877 11.4997L28.7877 23.4997L40.0322 9.44407L25.0322 -2.55593L13.7877 11.4997ZM13.7877 -3.49993L-1.21234 8.50007L10.0322 22.5557L25.0322 10.5557L13.7877 -3.49993ZM11.2122 23.4997L26.2122 11.4997L14.9677 -2.55593L-0.032342 9.44407L11.2122 23.4997ZM26.2122 -2.55593L25.0322 -3.49993L13.7877 10.5557L14.9677 11.4997L26.2122 -2.55593ZM28.3332 37.6666C31.2554 37.6666 34.3562 36.7545 36.9018 34.7181L25.6573 20.6624C26.6401 19.8762 27.6213 19.6666 28.3332 19.6666V37.6666ZM36.9018 34.7181C39.4995 32.6399 41.4999 29.3349 41.4999 25.3332H23.4999C23.4999 23.0997 24.6224 21.4904 25.6573 20.6624L36.9018 34.7181ZM21.8332 25.3332C21.8332 22.746 23.1313 20.7976 24.4788 19.7196L35.7233 33.7753C38.0084 31.9471 39.8332 28.9813 39.8332 25.3332H21.8332ZM24.4788 19.7196C25.7741 18.6833 27.1792 18.3332 28.3332 18.3332V36.3332C30.8134 36.3332 33.4902 35.5617 35.7233 33.7753L24.4788 19.7196ZM11.6666 18.3332C12.8206 18.3332 14.2257 18.6833 15.5211 19.7196L4.27656 33.7753C6.50958 35.5617 9.18646 36.3332 11.6666 36.3332V18.3332ZM15.5211 19.7196C16.8685 20.7976 18.1666 22.746 18.1666 25.3332H0.16658C0.16658 28.9813 1.99141 31.9471 4.27656 33.7753L15.5211 19.7196ZM-1.50009 25.3332C-1.50009 29.3349 0.500335 32.6399 3.09805 34.7181L14.3426 20.6624C15.3775 21.4904 16.4999 23.0997 16.4999 25.3332H-1.50009ZM3.09805 34.7181C5.64364 36.7545 8.74445 37.6666 11.6666 37.6666V19.6666C12.3786 19.6666 13.3598 19.8762 14.3426 20.6624L3.09805 34.7181Z" fill="white" mask="url(#path-1-inside-1_425_251)"/>
</svg>
